<?xml version="1.0" encoding="UTF-8" standalone="no"?>
<svg
   viewBox="31.23 33.98 112 112"
   width="112"
   height="112"
   xmlns="http://www.w3.org/2000/svg">
  <defs
     id="defs5" />
  <path
     fill="#78be20"
     d="m 140.49706,108.44359 -26.015,32.622 -2.14,-4.456 23.345,-29.274 z m -78.134006,28.166 -23.346,-29.273 -4.808,1.107 26.015,32.622 z"
     id="path2" />
  <path
     fill="#1d428a"
     d="m 32.657054,101.66459 9.285,-40.680998 3.867,3.071 -8.331,36.499998 z m 109.390006,0 -9.285,-40.680998 -3.865,3.071 8.33,36.499998 z"
     id="path3" />
  <path
     fill="#00c1d5"
     d="M 108.20906,144.08459 H 66.491054 l 2.139,-4.452 h 37.445006 z m 20.217,-88.540998 -37.596006,-18.1 v 4.94 l 33.723006,16.243 z m -44.552006,-13.164 -33.723,16.242 -3.873,-3.078 37.6,-18.105 z"
     id="path4" />
  <path
     fill="#0091da"
     d="M 105.90906,131.19459 H 68.799054 l -23.134,-29.01 8.256,-36.175998 33.431,-16.1 33.431006,16.1 8.257,36.175998 z m -34.966006,-4.451 h 32.818006 l 20.462,-25.658 -7.3,-31.999998 -29.571006,-14.235 -29.567,14.239 -7.3,31.999998 z"
     id="path5" />
</svg>
